<svg width="280" height="280" viewBox="0 0 280 280" fill="none" xmlns="http://www.w3.org/2000/svg">
<path d="M157.5 148.75C157.5 151.512 156.846 154.234 155.591 156.695C154.337 159.156 152.518 161.284 150.284 162.907C148.049 164.53 145.462 165.601 142.734 166.033C140.006 166.464 137.215 166.244 134.589 165.39C131.962 164.536 129.575 163.072 127.623 161.119C125.67 159.166 124.208 156.778 123.355 154.151C122.502 151.524 122.283 148.733 122.716 146.005C123.149 143.277 124.221 140.691 125.845 138.457C131.463 131.638 139.738 128.753 137.069 113.753C143.937 118.889 154.102 129.445 142.966 141.187C139.653 144.369 142.255 149.258 146.528 148.75C149.1 148.444 152.428 145.933 155.948 142.042C157.5 144.025 157.5 147.05 157.5 148.75Z" stroke="#FBBA58" stroke-width="2.75" stroke-linecap="round" stroke-linejoin="round"/>
<circle cx="140" cy="140" r="139.25" stroke="#FBBA58" stroke-width="1.5"/>
<circle cx="140" cy="140" r="59" stroke="white" stroke-width="2"/>
</svg>
