<svg width="280" height="280" viewBox="0 0 280 280" fill="none" xmlns="http://www.w3.org/2000/svg">
<circle cx="140" cy="140" r="139.25" stroke="#FBBA58" stroke-width="1.5"/>
<circle cx="140" cy="140" r="59" stroke="white" stroke-width="2"/>
<path d="M122.501 140C125.723 140 128.335 137.388 128.335 134.166C128.335 130.945 125.723 128.333 122.501 128.333C119.28 128.333 116.668 130.945 116.668 134.166C116.668 137.388 119.28 140 122.501 140Z" stroke="#FBBA58" stroke-width="1.83333" stroke-linecap="round" stroke-linejoin="round"/>
<path d="M122.5 116.667V128.334" stroke="#FBBA58" stroke-width="1.83333" stroke-linecap="round" stroke-linejoin="round"/>
<path d="M122.5 140V163.333" stroke="#FBBA58" stroke-width="1.83333" stroke-linecap="round" stroke-linejoin="round"/>
<path d="M140.001 157.5C143.223 157.5 145.835 154.888 145.835 151.666C145.835 148.445 143.223 145.833 140.001 145.833C136.78 145.833 134.168 148.445 134.168 151.666C134.168 154.888 136.78 157.5 140.001 157.5Z" stroke="#FBBA58" stroke-width="1.83333" stroke-linecap="round" stroke-linejoin="round"/>
<path d="M140 116.667V145.834" stroke="#FBBA58" stroke-width="1.83333" stroke-linecap="round" stroke-linejoin="round"/>
<path d="M140 157.5V163.333" stroke="#FBBA58" stroke-width="1.83333" stroke-linecap="round" stroke-linejoin="round"/>
<path d="M157.501 131.25C160.723 131.25 163.335 128.638 163.335 125.416C163.335 122.195 160.723 119.583 157.501 119.583C154.28 119.583 151.668 122.195 151.668 125.416C151.668 128.638 154.28 131.25 157.501 131.25Z" stroke="#FBBA58" stroke-width="1.83333" stroke-linecap="round" stroke-linejoin="round"/>
<path d="M157.5 116.667V119.584" stroke="#FBBA58" stroke-width="1.83333" stroke-linecap="round" stroke-linejoin="round"/>
<path d="M157.5 131.25V163.333" stroke="#FBBA58" stroke-width="1.83333" stroke-linecap="round" stroke-linejoin="round"/>
</svg>
