<svg xmlns="http://www.w3.org/2000/svg"> 
    <symbol id="headerLogo" viewBox="0 0 82 90">
        <g>
            <path id="check" d="M73.9756 0.0433567C72.8753 0.377822 71.8355 0.918015 70.8076 1.38879C68.5331 2.49947 66.2792 3.6417 64.0608 4.83316C62.3047 5.75704 60.5634 6.7112 58.8812 7.73101C56.7455 9.11052 54.7783 10.7374 52.8803 12.3479C51.5762 12.0197 50.1819 11.9124 48.8423 11.7168C44.8501 11.2082 40.8994 11.2208 36.8805 11.4101C34.0462 11.5792 31.243 11.9326 28.4294 12.2507C26.6555 10.8699 24.8743 9.51566 23.0016 8.23334C20.6267 6.65315 18.2 5.14112 15.6301 3.79821C14.0616 2.99044 12.3867 2.31899 10.737 1.64123C9.45354 1.16287 8.12567 0.631516 6.74778 0.394235C6.33125 0.313459 5.95319 0.54443 5.77 0.851129C5.44506 1.39132 5.44802 2.09559 5.29295 2.68627C5.02557 3.81967 5.09201 4.95306 4.93694 6.09277C4.86163 7.35617 4.9325 8.62586 4.79814 9.87916C4.77447 11.8569 4.72431 13.8346 4.7391 15.8125C4.72727 16.5331 4.90157 17.2374 4.89861 17.9581C4.89565 18.7217 5.07884 19.465 5.06108 20.2299C5.2058 21.9552 5.33867 23.6996 5.49375 25.4223C5.61345 26.7337 5.86308 28.0034 6.10678 29.2946C6.23226 29.8372 5.91471 30.2475 5.73745 30.7573C4.56184 33.731 3.36403 36.6957 2.17362 39.6643C2.02742 39.9961 1.96395 40.3231 1.94027 40.6778C1.54297 43.7333 1.12644 46.818 0.711385 49.8737C0.709904 50.6473 0.515035 51.3932 0.438237 52.1607C0.343686 53.0757 0.206365 53.9882 0.0881397 54.9007C0.077779 55.119 0.0143025 55.3109 0.181211 55.499C0.553357 55.6732 0.927121 55.6138 1.32886 55.5911C1.76596 55.557 2.20173 55.5608 2.64032 55.5545C4.75242 55.4687 6.85551 55.3412 8.9617 55.2907C9.18913 55.4864 9.31032 55.7791 9.4713 56.0176C14.3142 63.6511 19.1645 71.2819 24.0074 78.914C24.2525 79.2675 24.737 79.506 25.0974 79.771C29.9359 83.127 34.7728 86.4856 39.6159 89.8366C39.8226 89.9816 40.0722 90.0586 40.3278 89.9463C40.7767 89.7167 41.1533 89.3822 41.5742 89.1146C46.2075 85.8785 50.8451 82.6462 55.4798 79.4126C55.8993 79.1046 56.3364 78.9001 56.62 78.4862C62.1511 70.7404 67.737 62.9973 73.2564 55.2478C75.6579 55.3437 78.0535 55.3349 80.4506 55.4662C80.7962 55.4687 81.1891 55.4447 81.2363 55.0799C80.5939 50.7925 80.0046 46.4975 79.3458 42.2112C79.2616 41.6938 79.2365 41.1459 79.0741 40.6424C77.7271 36.9368 76.2841 33.2791 74.9371 29.5723C74.8603 29.2681 75.0065 28.9159 75.0509 28.6092C75.3802 26.745 75.6919 24.8809 75.9311 23.0078C76.4776 18.502 76.4259 13.9015 76.3373 9.37557C76.2693 8.61702 76.2265 7.86353 76.2073 7.10373C76.036 5.44149 76.0109 3.85373 75.5973 2.19782C75.4511 1.62102 75.3906 0.925589 74.9992 0.42326C74.7569 0.126658 74.4202 -0.0980022 73.9756 0.0433567Z" fill="#E77E1C"/>
            <path d="M74.3217 0.483887C74.0573 0.488934 73.8018 0.621454 73.5669 0.717373C73.0707 0.940762 72.5508 1.11493 72.0619 1.35346C69.4005 2.61681 66.7774 3.94325 64.2001 5.32902C61.7573 6.63529 59.1459 8.00339 57.0221 9.67312C55.7549 10.5995 54.5984 11.6066 53.4169 12.6024C53.0359 13.1969 52.962 13.9503 52.7537 14.6016C51.361 19.3608 50.045 23.9927 48.6286 28.6902C47.5918 32.5181 46.3955 36.3169 45.3764 40.1486C45.0102 41.282 44.6542 42.4128 44.4591 43.5803C43.9954 45.9896 43.5228 48.3914 43.0413 50.7994C42.6795 53.282 42.0916 55.7619 41.6471 58.2192C41.4817 59.1089 41.2498 59.9975 41.1862 60.8961C41.5968 60.1376 41.8272 59.3386 42.1331 58.5499C42.5776 57.4746 42.9262 56.3677 43.3353 55.2811C45.0013 50.8739 46.5846 46.4288 48.3333 42.048C48.2698 41.8841 48.2062 41.72 48.1412 41.5559C48.5725 40.969 48.9565 40.3557 49.4025 39.7788C50.8072 38.2114 52.2664 36.6716 53.8334 35.2189C55.1671 34.0994 56.8981 33.3435 58.7442 33.0797C60.2449 32.864 61.7705 32.6671 63.2903 32.5888C63.3922 32.6683 63.4927 32.7478 63.5931 32.8274C65.2414 32.2316 66.9266 31.7268 68.5985 31.1866C70.3974 30.6224 72.1638 30.0343 73.9495 29.4437C74.3098 29.3352 74.4029 29.1092 74.4546 28.8126C75.1 25.1424 75.7129 21.5568 75.7292 17.8338C75.9448 14.4489 75.8149 11.1233 75.7085 7.74339C75.5121 5.95629 75.4958 4.01015 75.0306 2.19149C74.8785 1.55034 74.8858 0.984934 74.3217 0.483887Z" fill="#FBA340"/>
            <path d="M6.39714 0.869631C5.94361 1.54235 5.96136 2.43341 5.76057 3.18943C5.42971 5.94971 5.40012 8.75038 5.35441 11.5233C5.36624 13.0782 5.21561 14.6458 5.35292 16.1931C5.39568 17.7936 5.58627 19.3902 5.68674 20.988C5.93488 23.9566 6.06924 26.8658 6.80332 29.7888C10.317 30.6863 13.8336 31.4296 17.3664 32.255C17.8331 32.3737 18.2363 32.2399 18.7148 32.2828C19.4121 32.3585 20.0914 32.5618 20.7797 32.6855C22.3171 33.001 23.933 33.2306 25.3464 33.8605C26.5974 34.4234 27.4777 35.2754 28.445 36.145C30.0889 37.8412 31.8065 39.6133 33.0458 41.5507C32.9394 41.8864 33.0132 42.1414 33.1535 42.4606C33.7001 43.7821 34.0989 45.1414 34.6703 46.4553C35.558 49.0666 36.5476 51.654 37.5269 54.2414C38.0334 55.7345 38.5754 57.2149 39.1381 58.6929C39.4542 59.5549 39.723 60.427 40.0996 61.274C39.9875 59.8718 39.5976 58.4859 39.345 57.0988C39.0082 55.9654 39.0393 54.8118 38.6449 53.6873C38.5311 53.3895 38.4677 53.108 38.4455 52.7937C38.3997 52.1501 38.1353 51.5429 38.0467 50.9006C37.7277 48.8749 37.2743 46.8705 36.9847 44.8423C36.778 43.8162 36.6805 42.7648 36.3452 41.7652C35.9111 40.291 35.5521 38.7992 35.0735 37.3339C34.598 35.7209 34.2377 34.0877 33.768 32.4721C33.2362 30.4502 32.5865 28.4435 32.1226 26.4088C31.1641 22.943 30.1067 19.4873 29.2353 16.0052C28.8438 14.9474 28.5884 13.8683 28.3284 12.7828C28.5691 12.7576 28.8084 12.7324 29.0477 12.7046C28.9531 12.7008 28.8571 12.6983 28.7625 12.6958C28.5602 12.697 28.3595 12.6983 28.1585 12.6995C25.7599 10.8392 23.2993 8.9498 20.6674 7.333C17.9483 5.59127 15.0668 3.90632 11.9815 2.67448C10.3657 2.02448 8.7824 1.38459 7.06758 0.939049C6.85495 0.889827 6.61864 0.884777 6.39714 0.869631Z" fill="#FBA340"/>
            <path d="M43.0808 11.7791C41.1918 11.7854 39.3485 11.7324 37.4669 11.8737C34.5632 11.9873 31.6389 12.4001 28.7603 12.6954C28.8548 12.6979 28.9507 12.7004 29.0453 12.7042C28.806 12.732 28.5667 12.7572 28.326 12.7825C28.586 13.8679 28.8415 14.947 29.2329 16.0047C30.1043 19.4869 31.1618 22.9426 32.1204 26.4085C32.5841 28.443 33.234 30.4499 33.7656 32.4718C34.2353 34.0874 34.5958 35.7205 35.0713 37.3336C35.5499 38.7988 35.9087 40.2907 36.343 41.7649C36.6781 42.7645 36.7756 43.8159 36.9825 44.842C37.2719 46.8702 37.7253 48.8746 38.0443 50.9003C38.133 51.5426 38.3974 52.1498 38.4431 52.7934C38.4653 53.1077 38.5288 53.3892 38.6426 53.687C39.0369 54.8115 39.0058 55.9651 39.3426 57.0985C39.5952 58.4856 39.9851 59.8715 40.0974 61.2738C40.2258 61.6675 40.3234 62.0815 40.5123 62.4576L40.6291 62.4438C40.9096 61.9704 40.9982 61.405 41.1814 60.8976C41.2449 59.999 41.4768 59.1105 41.6422 58.2206C42.0868 55.7632 42.6746 53.2832 43.0365 50.8005C43.518 48.3924 43.9906 45.9905 44.4544 43.5811C44.6494 42.4136 45.0052 41.2827 45.3716 40.1493C46.3907 36.3176 47.587 32.5185 48.6238 28.6904C50.0402 23.9927 51.3561 19.3607 52.7489 14.6013C52.9571 13.9499 53.0311 13.1965 53.4121 12.602C53.0679 12.7761 52.5731 12.7206 52.1921 12.6815C49.1718 12.2057 46.1558 11.8359 43.0808 11.7791Z" fill="#FFCB78"/>
            <path d="M18.2349 32.665C18.3161 32.867 18.3988 33.0664 18.5332 33.2468C19.4725 34.5431 20.5256 35.7232 21.5994 36.9475C22.2004 37.5799 22.7691 38.3258 23.5165 38.8345C24.4721 39.4302 25.6904 39.694 26.807 39.9704C28.6384 40.4071 30.4641 40.8703 32.3027 41.283C31.4861 40.1609 30.6132 39.0515 29.6206 38.0342C28.9841 37.3729 28.3682 36.6622 27.6682 36.0527C26.8749 35.3459 26.1203 34.6756 25.0879 34.2238C23.6064 33.546 22.1088 33.4046 20.5108 33.0664C19.7458 32.9112 19.0043 32.6751 18.2349 32.665Z" fill="white"/>
            <path d="M62.7285 33.04C61.4805 33.1436 60.2088 33.2925 58.9711 33.4667C57.4144 33.6801 55.9182 34.2241 54.719 35.1065C54.1031 35.5217 53.6673 36.028 53.1298 36.5151C52.0058 37.6222 50.9366 38.7709 49.885 39.9271C49.4477 40.3955 49.1893 40.947 48.7728 41.4268C50.7208 41.0518 52.6409 40.5508 54.5565 40.0685C56.4071 39.6079 58.1116 38.8264 59.3272 37.5187C60.4702 36.2135 61.4584 34.8086 62.4804 33.4112C62.5631 33.2875 62.6473 33.1638 62.7285 33.04Z" fill="white"/>
            <path d="M2.70569 40.7026C2.41478 41.2504 2.4281 41.8096 2.34243 42.3939C2.15628 43.6297 2.03954 44.8704 1.83135 46.1049C1.68071 46.9619 1.68367 47.8277 1.52564 48.6874C1.3395 49.6668 1.22733 50.6614 1.12094 51.6497C0.968827 52.8034 0.764928 53.9495 0.626134 55.1044C2.92128 54.9996 5.21362 54.8873 7.51026 54.8014C8.24581 54.7762 8.96509 54.6664 9.70198 54.6601C11.5217 54.6501 13.3546 54.5352 15.1668 54.4128C16.0515 54.4203 16.9451 54.3509 17.8268 54.4052C19.9092 54.7636 21.6506 55.4819 23.5633 56.2063C25.1229 56.9006 26.6782 57.6225 28.2865 58.2296C30.1637 59.0552 32.0409 59.8882 33.9152 60.7162C34.5871 61.0154 35.3064 61.1908 35.9533 61.5341C36.7052 61.9216 37.5072 62.2018 38.2884 62.5452C38.8571 62.7988 39.4611 62.9326 40.0977 62.9983C33.5696 58.4417 27.0089 53.8245 20.5 49.244C19.9343 48.8628 19.2904 48.6041 18.6538 48.2961C15.412 46.7296 12.1405 45.2049 8.89998 43.6372C6.82486 42.6754 4.79413 41.6417 2.70569 40.7026Z" fill="#FBA340"/>
            <path d="M78.4458 41.3481C76.7695 42.2644 74.9883 43.0218 73.2853 43.9028C69.4541 45.7492 65.6289 47.6476 61.8051 49.4965C60.9809 49.8929 60.2808 50.4633 59.4966 50.9316C57.5233 52.2317 55.5309 53.5102 53.5592 54.8127C52.3703 55.6092 51.1312 56.35 49.9495 57.1577C46.9882 59.0851 43.9531 61.0325 41.0199 62.9787C41.6964 62.9446 42.2739 62.7048 42.8572 62.4335C43.9014 61.9526 44.9456 61.4743 46.0415 61.0843C47.9202 60.2526 49.8285 59.4662 51.7248 58.6635C52.193 58.43 52.6745 58.2482 53.1826 58.088C54.017 57.8192 54.7259 57.3698 55.5442 57.0782C57.9295 56.1695 60.368 54.737 63.0177 54.549C65.1518 54.4404 67.4041 54.5982 69.5176 54.6196C70.9459 54.6436 72.3726 54.6764 73.8008 54.6651C76.0384 54.8063 78.2878 54.8518 80.5313 54.8997C80.3968 53.312 80.0867 51.7318 79.8799 50.149C79.4575 47.7574 79.2301 45.3416 78.7973 42.9511C78.6836 42.4462 78.8195 41.766 78.4458 41.3481Z" fill="#FBA340"/>
            <path d="M0.709748 49.8755C0.474922 51.4559 0.269689 53.0402 0.0450723 54.6232C0.0111873 54.9867 -0.0744872 55.3086 0.142583 55.6445C0.974168 55.6432 1.80857 55.6028 2.63867 55.5573C2.19994 55.5637 1.76432 55.5599 1.32707 55.594C0.925339 55.6167 0.551717 55.676 0.179575 55.5018C0.0126665 55.3137 0.0761409 55.1218 0.0864987 54.9034C0.204726 53.9907 0.342045 53.0781 0.436597 52.1629C0.513393 51.3953 0.708269 50.6493 0.709748 49.8755Z" fill="#FBA340"/>
            <path d="M9.925 55.4907C11.3902 57.8636 12.9335 60.2225 14.3913 62.5727C15.7205 64.5643 16.9242 66.6228 18.2506 68.6182C20.2445 71.7673 22.2619 74.9682 24.2765 78.102C24.4419 78.3633 24.5822 78.6561 24.8481 78.8555C29.5714 82.1295 34.404 85.4893 39.1169 88.7495C39.492 89.0132 39.7446 89.3604 40.1389 89.604C40.5925 88.9766 41.2555 88.5981 41.9098 88.1424C46.106 85.2042 50.3093 82.2747 54.5127 79.344C55.0311 78.9729 55.6559 78.6258 56.0561 78.1563C61.317 70.8484 66.6296 63.4018 71.8757 56.094C71.9717 55.9438 72.0589 55.7898 72.1445 55.6346C70.192 55.9753 68.238 56.325 66.2766 56.6254C65.1038 56.8879 63.9046 57.014 62.7245 57.2476C62.0245 57.3814 61.2506 57.4458 60.5889 57.673C60.4234 58.2106 60.0778 58.6385 59.8341 59.1548C59.5387 59.7706 59.1503 60.3423 58.8135 60.9419C58.3631 61.7294 57.9895 62.5411 57.468 63.2983C56.7104 64.7107 55.8552 66.0813 55.1153 67.5012C54.4979 68.5652 53.8939 69.6343 53.2691 70.6944C52.4568 72.252 51.4982 73.7514 50.6667 75.3013C50.1232 76.2089 49.6831 77.211 48.9933 78.0377C47.6198 79.768 46.2712 81.5136 44.8874 83.2389C44.0027 84.4872 42.9644 85.6458 42.0738 86.8903C41.4165 87.7347 40.7357 88.564 40.1006 89.4197C39.6752 89.0006 39.3932 88.5249 39.0342 88.0654C37.99 86.6846 36.9665 85.2913 35.9119 83.9155C34.596 82.2532 33.3657 80.543 32.0733 78.8681C31.6451 78.2535 31.1503 77.741 30.8239 77.0772C30.4989 76.3943 30.1562 75.7204 29.7472 75.0717C29.4991 74.693 29.3838 74.2802 29.186 73.8865C28.5213 72.6761 27.8655 71.4607 27.2349 70.2364C26.0637 68.1551 25.0829 65.9956 23.86 63.9281C23.0389 62.2091 22.0966 60.5392 21.2295 58.8316C20.9844 58.3747 20.7053 57.938 20.5177 57.4596L20.7791 57.4647C20.5443 57.3662 20.3021 57.2905 20.045 57.2451C19.1515 57.0847 18.2491 56.9535 17.3556 56.7958C16.6185 56.6683 15.9274 56.4714 15.1741 56.4121C14.7562 56.3818 14.3587 56.2846 13.9542 56.195C12.6086 55.9791 11.2586 55.7607 9.925 55.4907Z" fill="#FBA340"/>
            <path d="M20.7723 57.4596L20.511 57.4546C20.6985 57.933 20.9777 58.3696 21.2229 58.8266C22.0898 60.5341 23.0321 62.204 23.8533 63.923C25.0763 65.9904 26.0569 68.1499 27.2282 70.2311C27.8588 71.4554 28.5145 72.6709 29.1792 73.8813C29.3771 74.275 29.4923 74.6877 29.7404 75.0664C30.1495 75.7151 30.4922 76.389 30.8172 77.0719C31.1434 77.7357 31.6383 78.2482 32.0666 78.8628C33.359 80.5377 34.5892 82.2478 35.9052 83.9101C36.9598 85.2859 37.9833 86.6791 39.0275 88.0599C39.3864 88.5194 39.6685 88.9952 40.0938 89.4142C40.7289 88.5585 41.4098 87.7292 42.0671 86.8849C42.9576 85.6404 43.9959 84.4818 44.8806 83.2335C46.2645 81.5083 47.613 79.7627 48.9866 78.0324C49.6763 77.2057 50.1165 76.2036 50.66 75.296C51.4914 73.7462 52.4499 72.2467 53.2623 70.6892C53.887 69.629 54.4912 68.56 55.1085 67.4961C55.8485 66.0763 56.7036 64.7056 57.4614 63.2932C57.9827 62.536 58.3563 61.7243 58.8068 60.9368C59.1435 60.3374 59.532 59.7656 59.8274 59.1497C60.0711 58.6334 60.4167 58.2055 60.582 57.6679C55.2473 59.835 49.9422 62.0652 44.5823 64.1855C43.7907 64.4986 43.0285 64.8356 42.1734 65.0096C41.4851 65.1611 40.6078 65.4477 39.9165 65.2141C38.9581 64.9277 38.0276 64.5806 37.1208 64.1918C34.1358 63.018 31.2085 61.7408 28.2295 60.5569C25.76 59.4967 23.236 58.5324 20.7723 57.4596Z" fill="#FFCB78"/>
            <animate attributeName="stroke-dashoffset" begin="headerLogo.click" value="; 0" dur="10s" repeatCount="1" fill="freeze" calcMode="linear"></animate>

        </g>
    </symbol>
    <symbol id="headerTel" viewBox="0 0 44 45">
        <g>
            <path d="M13.7059 11H19.1176L21.8235 17.7647L18.4412 19.7941C19.8901 22.7321 22.2679 25.1099 25.2059 26.5588L27.2353 23.1765L34 25.8824V31.2941C34 32.0118 33.7149 32.7 33.2075 33.2075C32.7 33.7149 32.0118 34 31.2941 34C26.0167 33.6793 21.039 31.4382 17.3004 27.6996C13.5618 23.961 11.3207 18.9833 11 13.7059C11 12.9882 11.2851 12.3 11.7925 11.7925C12.3 11.2851 12.9882 11 13.7059 11" stroke="#F0EFEF" stroke-width="0.916667" stroke-linecap="round" stroke-linejoin="round"/>
        </g>
    </symbol>
    <symbol id="sevicesDesign" viewBox="0 0 44 44">
        <g>
            <path d="M33 27.5001C32.9998 29.2361 32.5887 30.9474 31.8003 32.4941C31.012 34.0408 29.8687 35.3789 28.4641 36.399C27.0595 37.4192 25.4333 38.0924 23.7186 38.3636C22.004 38.6349 20.2494 38.4964 18.5985 37.9596C16.9476 37.4228 15.4472 36.5028 14.2199 35.275C12.9927 34.0472 12.0735 32.5463 11.5375 30.8951C11.0015 29.2439 10.8639 27.4893 11.1359 25.7748C11.408 24.0602 12.082 22.4344 13.1028 21.0303C16.6338 16.744 21.835 14.9308 20.1575 5.50195C24.475 8.73045 30.8642 15.3653 23.8645 22.7463C21.7818 24.7465 23.4172 27.8191 26.103 27.5001C27.72 27.3076 29.8118 25.7291 32.0247 23.2835C33 24.5301 33 26.4313 33 27.5001Z" stroke="#FBA340" stroke-width="1.83333" stroke-linecap="round" stroke-linejoin="round"/>
        </g>
    </symbol>
    <symbol id="sevicesLayout" viewBox="0 0 44 44">
        <g>
            <path d="M14.6673 7.3335H11.0007C8.97561 7.3335 7.33398 8.97512 7.33398 11.0002V12.8335C7.33398 14.8585 8.97561 16.5002 11.0007 16.5002H14.6673C16.6924 16.5002 18.334 14.8585 18.334 12.8335V11.0002C18.334 8.97512 16.6924 7.3335 14.6673 7.3335Z" stroke="#FBA340" stroke-width="1.83333" stroke-linecap="round" stroke-linejoin="round"/>
            <path d="M14.6673 23.8335H11.0007C8.97561 23.8335 7.33398 25.4751 7.33398 27.5002V33.0002C7.33398 35.0252 8.97561 36.6668 11.0007 36.6668H14.6673C16.6924 36.6668 18.334 35.0252 18.334 33.0002V27.5002C18.334 25.4751 16.6924 23.8335 14.6673 23.8335Z" stroke="#FBA340" stroke-width="1.83333" stroke-linecap="round" stroke-linejoin="round"/>
            <path d="M32.9993 7.3335H29.3327C27.3076 7.3335 25.666 8.97512 25.666 11.0002V16.5002C25.666 18.5252 27.3076 20.1668 29.3327 20.1668H32.9993C35.0244 20.1668 36.666 18.5252 36.666 16.5002V11.0002C36.666 8.97512 35.0244 7.3335 32.9993 7.3335Z" stroke="#FBA340" stroke-width="1.83333" stroke-linecap="round" stroke-linejoin="round"/>
            <path d="M32.9993 27.5H29.3327C27.3076 27.5 25.666 29.1416 25.666 31.1667V33C25.666 35.025 27.3076 36.6667 29.3327 36.6667H32.9993C35.0244 36.6667 36.666 35.025 36.666 33V31.1667C36.666 29.1416 35.0244 27.5 32.9993 27.5Z" stroke="#FBA340" stroke-width="1.83333" stroke-linecap="round" stroke-linejoin="round"/>
        </g>
    </symbol>
    <symbol id="sevicesCopy" viewBox="0 0 44 44">
        <g>
            <path d="M29.334 11.0002H34.834C35.3202 11.0002 35.7865 11.1933 36.1303 11.5371C36.4742 11.881 36.6673 12.3473 36.6673 12.8335V33.0002C36.6673 33.9726 36.281 34.9053 35.5934 35.5929C34.9057 36.2805 33.9731 36.6668 33.0007 36.6668C32.0282 36.6668 31.0956 36.2805 30.4079 35.5929C29.7203 34.9053 29.334 33.9726 29.334 33.0002V9.16683C29.334 8.6806 29.1408 8.21428 28.797 7.87047C28.4532 7.52665 27.9869 7.3335 27.5007 7.3335H9.16732C8.68109 7.3335 8.21477 7.52665 7.87096 7.87047C7.52714 8.21428 7.33398 8.6806 7.33398 9.16683V31.1668C7.33398 32.6255 7.91345 34.0245 8.9449 35.0559C9.97635 36.0874 11.3753 36.6668 12.834 36.6668H33.0007" stroke="#FBA340" stroke-width="1.83333" stroke-linecap="round" stroke-linejoin="round"/>
            <path d="M14.666 14.6665H21.9993" stroke="#FBA340" stroke-width="1.83333" stroke-linecap="round" stroke-linejoin="round"/>
            <path d="M14.666 22H21.9993" stroke="#FBA340" stroke-width="1.83333" stroke-linecap="round" stroke-linejoin="round"/>
            <path d="M14.666 29.3335H21.9993" stroke="#FBA340" stroke-width="1.83333" stroke-linecap="round" stroke-linejoin="round"/>
        </g>
    </symbol>
    <symbol id="sevicesAdversiting" viewBox="0 0 44 44">
        <g>
            <path d="M14.6667 22H7.33333C6.32081 22 5.5 22.8208 5.5 23.8333V34.8333C5.5 35.8459 6.32081 36.6667 7.33333 36.6667H14.6667C15.6792 36.6667 16.5 35.8459 16.5 34.8333V23.8333C16.5 22.8208 15.6792 22 14.6667 22Z" stroke="#FBA340" stroke-width="1.83333" stroke-linecap="round" stroke-linejoin="round"/>
            <path d="M25.6667 14.6665H18.3333C17.3208 14.6665 16.5 15.4873 16.5 16.4998V34.8332C16.5 35.8457 17.3208 36.6665 18.3333 36.6665H25.6667C26.6792 36.6665 27.5 35.8457 27.5 34.8332V16.4998C27.5 15.4873 26.6792 14.6665 25.6667 14.6665Z" stroke="#FBA340" stroke-width="1.83333" stroke-linecap="round" stroke-linejoin="round"/>
            <path d="M36.6667 7.3335H29.3333C28.3208 7.3335 27.5 8.15431 27.5 9.16683V34.8335C27.5 35.846 28.3208 36.6668 29.3333 36.6668H36.6667C37.6792 36.6668 38.5 35.846 38.5 34.8335V9.16683C38.5 8.15431 37.6792 7.3335 36.6667 7.3335Z" stroke="#FBA340" stroke-width="1.83333" stroke-linecap="round" stroke-linejoin="round"/>
            <path d="M7.33398 36.6665H33.0007" stroke="#FBA340" stroke-width="1.83333" stroke-linecap="round" stroke-linejoin="round"/>
        </g>
    </symbol>
    <symbol id="yellowLine" viewBox="0 0 470 60">
        <g>
            <path d="M52 0.5H469.5L406 52.5L0 60L52 0.5Z" fill="#FBA340"/>
        </g>
    </symbol>
    <symbol id="tick" viewBox="0 0 45 45">
        <g>
            <path d="M22.5 0C10.0736 0 0 10.0736 0 22.5C0 34.9264 10.0736 45 22.5 45C34.9264 45 45 34.9264 45 22.5C44.9856 10.0795 34.9205 0.0144254 22.5 0ZM22.5 43.5484C10.8753 43.5484 1.45161 34.1247 1.45161 22.5C1.45161 10.8753 10.8753 1.45161 22.5 1.45161C34.1247 1.45161 43.5484 10.8753 43.5484 22.5C43.5356 34.1194 34.1194 43.5356 22.5 43.5484Z" />
            <path d="M33.5995 14.3658L18.8707 29.0946L11.3999 21.6239C11.1116 21.3454 10.6522 21.3533 10.3736 21.6417C10.102 21.9229 10.102 22.3688 10.3736 22.6502L18.3575 30.634C18.6409 30.9174 19.1004 30.9174 19.3838 30.634L34.6257 15.3921C34.9043 15.1038 34.8963 14.6444 34.608 14.3658C34.3266 14.0942 33.8807 14.0942 33.5995 14.3658Z"/>
        </g>
    </symbol>
    <symbol id="home" viewBox="0 0 73 73">
        <g>
            <path d="M9.125 63.8743H30.4167V54.7493C30.4167 53.1359 31.0576 51.5886 32.1984 50.4478C33.3393 49.3069 34.8866 48.666 36.5 48.666C38.1134 48.666 39.6607 49.3069 40.8016 50.4478C41.9424 51.5886 42.5833 53.1359 42.5833 54.7493V63.8743H63.875" stroke="white" stroke-width="1.83333" stroke-linecap="round" stroke-linejoin="round"/>
            <path d="M18.25 63.875V36.5" stroke="white" stroke-width="1.83333" stroke-linecap="round" stroke-linejoin="round"/>
            <path d="M54.75 63.875V36.5" stroke="white" stroke-width="1.83333" stroke-linecap="round" stroke-linejoin="round"/>
            <path d="M18.25 36.5H54.75C57.1701 36.5 59.4911 35.5386 61.2024 33.8274C62.9136 32.1161 63.875 29.7951 63.875 27.375C57.6584 27.5498 51.5601 25.8377 46.5843 22.5205C41.6085 19.2033 38.0518 14.4788 36.5 9.125C34.9482 14.4788 31.3915 19.2033 26.4157 22.5205C21.4399 25.8377 15.3416 27.5498 9.125 27.375C9.125 29.7951 10.0864 32.1161 11.7977 33.8274C13.5089 35.5386 15.8299 36.5 18.25 36.5Z" stroke="white" stroke-width="1.83333" stroke-linecap="round" stroke-linejoin="round"/>
        </g>
    </symbol>
    <symbol id="plus" viewBox="0 0 100 100">
            <g>
                <path d="M35.6667 15.375C31.117 17.2583 26.9828 20.0191 23.5 23.5" stroke="white" stroke-width="2.75" stroke-linecap="round" stroke-linejoin="round"/>
                <path d="M15.375 35.667C13.4857 40.2099 12.5088 45.0802 12.5 50.0003" stroke="#009688" stroke-width="2.75" stroke-linecap="round" stroke-linejoin="round"/>
                <path d="M15.375 64.333C17.2583 68.8827 20.0191 73.0169 23.5 76.4997" stroke="white" stroke-width="2.75" stroke-linecap="round" stroke-linejoin="round"/>
                <path d="M35.666 84.625C40.2089 86.5143 45.0792 87.4912 49.9994 87.5" stroke="#009688" stroke-width="2.75" stroke-linecap="round" stroke-linejoin="round"/>
                <path d="M64.334 84.625C68.8836 82.7417 73.0179 79.9809 76.5007 76.5" stroke="white" stroke-width="2.75" stroke-linecap="round" stroke-linejoin="round"/>
                <path d="M84.625 64.3333C86.5143 59.7904 87.4912 54.9201 87.5 50" stroke="#009688" stroke-width="2.75" stroke-linecap="round" stroke-linejoin="round"/>
                <path d="M84.625 35.6667C82.7417 31.117 79.9809 26.9828 76.5 23.5" stroke="white" stroke-width="2.75" stroke-linecap="round" stroke-linejoin="round"/>
                <path d="M64.3333 15.375C59.7904 13.4857 54.9201 12.5088 50 12.5" stroke="#009688" stroke-width="2.75" stroke-linecap="round" stroke-linejoin="round"/>
                <path d="M38 49.5H63" stroke="#FBBA58" stroke-width="2.75" stroke-linecap="round" stroke-linejoin="round"/>
                <path d="M50.5 37V62" stroke="#FBBA58" stroke-width="2.75" stroke-linecap="round" stroke-linejoin="round"/>
            </g>
    </symbol>
    <symbol id="insta" viewBox="0 0 44 44">
        <g>
            <path d="M29.334 7.33301H14.6673C10.6172 7.33301 7.33398 10.6163 7.33398 14.6663V29.333C7.33398 33.3831 10.6172 36.6663 14.6673 36.6663H29.334C33.3841 36.6663 36.6673 33.3831 36.6673 29.333V14.6663C36.6673 10.6163 33.3841 7.33301 29.334 7.33301Z" stroke="white" stroke-width="1.83333" stroke-linecap="round" stroke-linejoin="round"/>
            <path d="M22 27.5C25.0376 27.5 27.5 25.0376 27.5 22C27.5 18.9624 25.0376 16.5 22 16.5C18.9624 16.5 16.5 18.9624 16.5 22C16.5 25.0376 18.9624 27.5 22 27.5Z" stroke="white" stroke-width="1.83333" stroke-linecap="round" stroke-linejoin="round"/>
            <path d="M30.25 13.75V13.751" stroke="white" stroke-width="1.83333" stroke-linecap="round" stroke-linejoin="round"/>
        </g>
    </symbol>
    <symbol id="telegram" viewBox="0 0 36 32">
        <g>
            <path d="M23.5 12.333L16.1667 19.6663L27.1667 30.6663L34.5 1.33301L1.5 14.1663L8.83333 17.833L12.5 28.833L18 21.4997" stroke="white" stroke-width="1.83333" stroke-linecap="round" stroke-linejoin="round"/>
        </g>
    </symbol>
    <symbol id="smile" viewBox="0 0 54 54">
        <g>
            <path d="M27 47.25C38.1838 47.25 47.25 38.1838 47.25 27C47.25 15.8162 38.1838 6.75 27 6.75C15.8162 6.75 6.75 15.8162 6.75 27C6.75 38.1838 15.8162 47.25 27 47.25Z" stroke="#FBBA58" stroke-width="1.83333" stroke-linecap="round" stroke-linejoin="round"/>
            <path d="M20.25 22.5H20.2721" stroke="#FBBA58" stroke-width="3" stroke-linecap="round" stroke-linejoin="round"/>
            <path d="M33.75 22.5H33.7721" stroke="#FBBA58" stroke-width="3" stroke-linecap="round" stroke-linejoin="round"/>
            <path d="M21.375 33.75C22.1082 34.4983 22.9834 35.0929 23.9493 35.4987C24.9152 35.9046 25.9523 36.1136 27 36.1136C28.0477 36.1136 29.0848 35.9046 30.0507 35.4987C31.0166 35.0929 31.8918 34.4983 32.625 33.75" stroke="#FBBA58" stroke-width="1.83333" stroke-linecap="round" stroke-linejoin="round"/>
        </g>
    </symbol>
    <symbol id="rightLine" viewBox="0 0 47 349">
        <g>
            <line y1="348" x2="45" y2="348" stroke="#FBBA58" stroke-width="2"/>
            <line x1="46" y1="2" x2="46" y2="349" stroke="#FBBA58" stroke-width="2"/>
            <line x1="1" y1="1" x2="46" y2="1" stroke="#FBBA58" stroke-width="2"/>
        </g>
    </symbol>
    <symbol id="leftLine" viewBox="0 0 47 349">
        <g>
            <line x1="1" y1="2" x2="1" y2="349" stroke="#FBBA58" stroke-width="2"/>
            <line y1="348" x2="45" y2="348" stroke="#FBBA58" stroke-width="2"/>
            <line y1="1" x2="45" y2="1" stroke="#FBBA58" stroke-width="2"/>
        </g>
    </symbol>

</svg>







</svg>
